<svg xmlns="http://www.w3.org/2000/svg" xmlns:svg="http://www.w3.org/2000/svg" xmlns:xlink="http://www.w3.org/1999/xlink" id="svg602" width="300" height="264.975" version="1.0" xml:space="preserve"><defs id="defs604"><linearGradient id="linearGradient655"><stop id="stop656" offset="0" style="stop-color:#fff;stop-opacity:.91759998"/><stop id="stop657" offset="1" style="stop-color:#fff;stop-opacity:0"/></linearGradient><linearGradient id="linearGradient652"><stop id="stop653" offset="0" style="stop-color:#fff;stop-opacity:.74119997"/><stop id="stop654" offset="1" style="stop-color:#fff;stop-opacity:0"/></linearGradient><linearGradient id="linearGradient649"><stop id="stop650" offset="0" style="stop-color:#fff;stop-opacity:1"/><stop id="stop651" offset="1" style="stop-color:#fff;stop-opacity:1"/></linearGradient><linearGradient id="linearGradient643"><stop id="stop644" offset="0" style="stop-color:#001e87;stop-opacity:1"/><stop id="stop645" offset="1" style="stop-color:#85aee8;stop-opacity:1"/></linearGradient><linearGradient id="linearGradient639"><stop id="stop640" offset="0" style="stop-color:#000;stop-opacity:.66670001"/><stop id="stop641" offset="1" style="stop-color:#fff;stop-opacity:.66670001"/></linearGradient><linearGradient id="linearGradient642" x1="262.138" x2="258.518" y1="131.275" y2="412.163" gradientTransform="matrix(0.54976303,0,0,0.54672932,-12.778504,-9.9453842)" gradientUnits="userSpaceOnUse" xlink:href="#linearGradient643"/><linearGradient id="linearGradient646" x1="330.06" x2="78.073" y1="210.709" y2="615.286" gradientTransform="matrix(0.69551382,0,0,0.43215756,-12.778504,-9.9453842)" gradientUnits="userSpaceOnUse" xlink:href="#linearGradient639"/><linearGradient id="linearGradient648" x1="311.324" x2="347.725" y1="56.541" y2="225.296" gradientTransform="matrix(0.54666224,0,0,0.54983046,-5.0249849,-4.1302342)" gradientUnits="userSpaceOnUse" xlink:href="#linearGradient652"/><linearGradient id="linearGradient659" x1="307.684" x2="304.044" y1="52.872" y2="181.273" gradientTransform="matrix(0.54666224,0,0,0.54983046,-5.0249849,-4.1302342)" gradientUnits="userSpaceOnUse" xlink:href="#linearGradient652"/><linearGradient id="linearGradient662" x1="406.306" x2="356.683" y1="222.428" y2="275.927" gradientTransform="matrix(0.68606785,0,0,0.43810761,-5.0249849,-4.1302342)" gradientUnits="userSpaceOnUse" xlink:href="#linearGradient655"/></defs><path id="path632" d="m 216.09826,76.926076 c -0.89084,-5.77257 88.87404,17.27167 83.68513,56.621614 -3.33629,40.22779 -67.34515,77.48503 -183.03046,98.10965 -53.845848,7.4798 -77.721499,8.10359 -77.751088,4.18715 C 38.497814,232.39927 211.4213,212.77422 253.93171,137.35519 277.00736,93.612496 217.10566,83.454076 216.09826,76.926076 z" style="font-size:12px;fill:url(#linearGradient646);fill-rule:evenodd;stroke-width:2.2874999"/><path id="path661" d="m 215.29024,77.151116 c -0.89084,-5.77257 84.83611,21.89254 79.6472,61.242484 -20.78169,33.44349 -67.34515,77.48504 -183.03046,98.10965 -53.84585,7.4798 -77.721495,8.10359 -77.751084,4.18716 C 33.651868,237.24519 208.99832,220.0431 249.08576,142.2011 281.85332,131.41084 216.29769,83.679116 215.29024,77.151116 z" style="font-size:12px;fill:url(#linearGradient662);fill-rule:evenodd;stroke-width:2.2874999"/><path id="path630" d="m 255.97732,236.43961 c 1.42285,15.8038 0.91688,19.07237 -3.05312,18.82813 -5.14944,-0.33339 -4.2802,-6.99318 -5.79269,-11.46883 -16.14217,-54.85669 -52.84124,-140.20525 -107.95277,-140.20525 -54.798199,0 -78.421104,70.35808 -98.293926,128.43325 -2.940112,9.07662 -6.527202,22.93579 -24.8063,23.25722 C 2.9906175,255.31856 -0.5632645,243.09837 0.0695905,235.18814 10.100329,102.13007 58.146075,2.2245558 129.23672,0.02432583 189.66177,-1.8462842 244.09177,104.40594 255.97732,236.43961 z" style="font-size:12px;fill:url(#linearGradient642);fill-rule:evenodd"/><path id="path658" d="m 255.97729,247.06089 c 1.42286,15.02381 0.91689,18.13104 -3.05311,17.89886 -5.14944,-0.31694 -4.2802,-6.64807 -5.79269,-10.90277 -16.14217,-52.1493 -52.84125,-142.0082 -107.95277,-142.0082 -54.798202,0 -78.421106,75.60828 -98.293907,130.81717 -2.940112,8.62865 -6.527202,21.80383 -24.8063,22.10937 C 2.9906175,265.00805 -0.5632655,253.39097 0.0695895,245.87115 10.100328,119.38011 58.146053,8.8986858 129.2367,6.8070558 189.66175,5.0287458 244.09175,121.54371 255.97729,247.06089 z" style="font-size:12px;fill:url(#linearGradient659);fill-rule:evenodd"/><path id="path663" d="m 255.97729,247.06089 c 1.42286,15.02381 0.91689,18.13104 -3.05311,17.89886 -5.14944,-0.31694 -4.2802,-6.64807 -5.79269,-10.90277 -16.14217,-52.1493 -52.84125,-142.0082 -107.95277,-142.0082 -54.798202,0 -78.421106,75.60828 -98.293907,130.81717 -2.940112,8.62865 -6.527202,21.80383 -24.8063,22.10937 C 2.9906175,265.00805 -0.5632655,253.39097 0.0695895,245.87115 10.100328,119.38011 58.146053,8.8986858 129.2367,6.8070558 189.66175,5.0287458 244.09175,121.54371 255.97729,247.06089 z" style="font-size:12px;fill:url(#linearGradient648);fill-rule:evenodd"/></svg>